<svg id="Group_22614" data-name="Group 22614" xmlns="http://www.w3.org/2000/svg" width="36" height="36" viewBox="0 0 36 36">
  <rect id="Rectangle_21721" data-name="Rectangle 21721" width="36" height="36" rx="4.909" fill="#f5004f"/>
  <path id="Path_23435" data-name="Path 23435" d="M21.875,8.219h4.219a.844.844,0,0,1,.844.844V26.781a.844.844,0,0,1-.844.844H10.906a.844.844,0,0,1-.844-.844V9.063a.844.844,0,0,1,.844-.844h4.219" fill="none" stroke="#efefef" stroke-linecap="round" stroke-linejoin="round" stroke-width="2"/>
  <path id="Path_23436" data-name="Path 23436" d="M14.281,11.594V10.75a4.219,4.219,0,0,1,8.438,0v.844Z" fill="none" stroke="#efefef" stroke-linecap="round" stroke-linejoin="round" stroke-width="2"/>
  <path id="Path_23437" data-name="Path 23437" d="M22.442,16.129a.929.929,0,1,1,1.313,1.313l-5.344,5.343a1.857,1.857,0,0,1-2.626,0l-1.656-1.656a.929.929,0,1,1,1.313-1.313l1,1a.929.929,0,0,0,1.313,0Z" fill="#efefef"/>
</svg>
